<svg xmlns="http://www.w3.org/2000/svg" width="40" height="40" viewBox="0 0 40 40">
  <path class="" d="M73.9,75.2c-0.2,0-0.5-0.1-0.7-0.3c-0.4-0.4-0.4-1,0-1.4c2.5-2.6,3.9-6.5,3.9-10.5c0-4.1-1.4-7.9-3.9-10.5 c-0.4-0.4-0.4-1,0-1.4c0.4-0.4,1-0.4,1.4,0c2.9,3,4.5,7.3,4.5,11.9c0,4.6-1.6,8.9-4.5,11.9C74.5,75.1,74.2,75.2,73.9,75.2z M71.3,71.8c2.2-2.2,3.5-5.4,3.5-8.9s-1.3-6.7-3.5-8.9c-0.4-0.4-1-0.4-1.4,0c-0.4,0.4-0.4,1,0,1.4c1.8,1.8,2.9,4.5,2.9,7.4 s-1.1,5.6-2.9,7.4c-0.4,0.4-0.4,1,0,1.4c0.2,0.2,0.5,0.3,0.7,0.3C70.9,72.1,71.1,72,71.3,71.8z M68,68.7c1.6-1.3,2.5-3.5,2.5-5.8 c0-2.3-1-4.5-2.6-5.8c-0.4-0.3-1.1-0.3-1.4,0.1c-0.3,0.4-0.3,1.1,0.1,1.4c1.1,0.9,1.8,2.5,1.8,4.3c0,1.7-0.7,3.3-1.8,4.2 c-0.4,0.4-0.5,1-0.1,1.4c0.2,0.2,0.5,0.4,0.8,0.4C67.6,68.9,67.8,68.9,68,68.7z M61.7,75.8c0.3-0.2,0.6-0.5,0.6-0.9v-24 c0-0.4-0.2-0.7-0.6-0.9c-0.3-0.2-0.7-0.1-1,0.1l-8.2,6.1h-4.3c-0.6,0-1,0.4-1,1v11.3c0,0.6,0.4,1,1,1h4.3l8.2,6.1 c0.2,0.1,0.4,0.2,0.6,0.2C61.4,75.9,61.5,75.9,61.7,75.8z M49.2,58.3h3.6c0.2,0,0.4-0.1,0.6-0.2l6.9-5.1v20l-6.9-5.1 c-0.2-0.1-0.4-0.2-0.6-0.2h-3.6V58.3z"/>
</svg>
